<svg xmlns="http://www.w3.org/2000/svg" width="173" height="27" viewBox="0 0 173 27">
    <g fill="#0361E4" fill-rule="evenodd">
        <path d="M13.243 4.718V27H7.791V4.718H0V0h21v4.718z"/>
        <path d="M32 12.21c-4.789 0-7.316 1.602-7.316 5.848V27H19V8.371h5.684v2.87C25.226 9.678 27.64 8 32 8v4.21zM53 26.626h-4.805l-.296-2.196C46.495 26.032 44.167 27 41.948 27 37.848 27 35 23.945 35 19.735V8h5.397v11.065c0 1.937 1.146 3.167 3.106 3.167 2.068 0 4.138-1.23 4.138-3.167V8H53v18.626zM59.47 15.476h7.429c-.369-2.114-1.478-3.319-3.621-3.319-2.22 0-3.365 1.314-3.808 3.319m12.42 3.575H59.358c.296 2.407 1.885 3.865 4.104 3.865 1.365 0 3.14-.473 4.028-2.152h4.288C71.15 24.118 68.377 27 63.314 27 57.844 27 54 22.954 54 17.519 54 12.122 57.438 8 63.353 8 68.71 8 72 11.72 72 17.481c0 .51-.038 1.022-.11 1.57M99 27h-5.807V15.876H80.809V27H75V0h5.81v11.088h12.383V0H99zM115.76 17.501c0-2.704-1.747-4.86-4.258-4.86-2.584 0-4.258 2.156-4.258 4.86s1.674 4.824 4.258 4.824c2.511 0 4.258-2.12 4.258-4.824m-13.76 0C102 12.165 105.969 8 111.502 8c5.496 0 9.498 4.165 9.498 9.501C121 22.8 116.998 27 111.502 27 105.97 27 102 22.8 102 17.501M153 14.782V27h-5.374V15.452c0-1.825-.846-2.718-2.684-2.718-1.915 0-3.756 1.153-3.756 3.092V27h-5.372V15.452c0-1.825-.846-2.718-2.648-2.718-1.915 0-3.792 1.153-3.792 3.092V27H124V8.374h4.822l.257 1.975C130.366 8.895 132.538 8 134.673 8c2.539 0 4.197 1.082 5.372 2.907C141.48 9.119 143.983 8 146.485 8c4.159 0 6.515 2.46 6.515 6.782M160.47 15.476h7.429c-.37-2.114-1.478-3.319-3.621-3.319-2.22 0-3.365 1.314-3.808 3.319m12.417 3.575h-12.528c.296 2.407 1.885 3.865 4.102 3.865 1.367 0 3.142-.473 4.03-2.152h4.285c-.626 3.354-3.4 6.236-8.462 6.236-5.472 0-9.314-4.046-9.314-9.481C155 12.122 158.438 8 164.35 8c5.36 0 8.65 3.72 8.65 9.481 0 .51-.038 1.022-.113 1.57"/>
    </g>
</svg>
